<?xml version="1.0" encoding="utf-8"?>
<!-- Generator: Adobe Illustrator 24.0.0, SVG Export Plug-In . SVG Version: 6.00 Build 0)  -->
<svg version="1.1" id="Layer_1" xmlns="http://www.w3.org/2000/svg" xmlns:xlink="http://www.w3.org/1999/xlink" x="0px" y="0px"
	 viewBox="0 0 1522 437.4" style="enable-background:new 0 0 1522 437.4;" xml:space="preserve">
<style type="text/css">
	.st0{fill:none;stroke:#F5854B;stroke-width:13;stroke-linecap:round;stroke-linejoin:round;stroke-miterlimit:10;}
	.st1{fill:none;stroke:#515252;stroke-width:9;stroke-miterlimit:10;}
	.st2{fill:#4D4E4E;}
	.st3{font-family:'Montserrat-MediumItalic';}
	.st4{font-size:213px;}
	.st5{font-family:'Montserrat-SemiBold';}
	.st6{font-size:161.5512px;}
	.st7{font-size:60px;}
	.st8{letter-spacing:2;}
</style>
<g>
	<path class="st0" d="M27.8,228.7h77.4l13,56.7l41.4-170.8L187.9,362l38.3-191.5l17.6,59h82.7l-33.7-41.4c0,0-49-56.7-13.8-101.1
		c43.7-42.9,85,6.1,88.1,20.7c-0.6-2.7,7-10.9,8.4-12.7c6.6-8.5,14.7-16.3,24.3-21.3c25.5-13,57.9,2.3,68.6,27.7
		c11.9,28.3-0.6,59.7-18.7,82.1L384,280"/>
	<line class="st1" x1="531" y1="31.1" x2="531" y2="406.4"/>
	<g>
		<text transform="matrix(1 0 0 1 573.648 245.5336)"><tspan x="0" y="0" class="st2 st3 st4">N</tspan><tspan x="173" y="0" class="st2 st5 st6">extMCQs</tspan></text>
		<text transform="matrix(1 0 0 1 573.648 327.7251)" class="st2 st5 st7 st8">Open the next door</text>
	</g>
</g>
</svg>
